<svg xmlns="http://www.w3.org/2000/svg" viewBox="0 0 450 150" preserveAspectRatio="xMidYMid meet">
  <!-- Фон для теста (удалить если нужно) -->
  <!-- <rect width="450" height="150" fill="#f0f0f0"/> -->
  
  <!-- M - темно-синий -->
  <path d="M 20 110 L 20 40 L 45 40 L 65 80 L 85 40 L 110 40 L 110 110 L 90 110 L 90 70 L 70 110 L 60 110 L 40 70 L 40 110 Z" fill="#0d4a6d"/>
  
  <!-- Рамка для 'a' - темно-синий -->
  <rect x="107" y="57" width="67" height="67" rx="10" ry="10" fill="none" stroke="#0d4a6d" stroke-width="4"/>
  
  <!-- 'a' внутри рамки - оранжевый -->
  <path d="M 140.5 95 Q 135 95 131 91 Q 127 87 127 80 Q 127 73 131 69 Q 135 65 140.5 65 Q 146 65 150 69 Q 154 73 154 80 L 154 95 L 148 95 L 148 90 Q 146 95 140.5 95 Z M 141 89 Q 144 89 146 87 Q 148 85 148 82 L 148 78 Q 146 76 143 76 Q 140 76 138 78 Q 136 80 136 82 Q 136 85 138 87 Q 140 89 141 89 Z" fill="#c97234" transform="translate(0, 20) scale(1.3)"/>
  
  <!-- N - темно-синий -->
  <path d="M 187 110 L 187 40 L 207 40 L 237 90 L 237 40 L 257 40 L 257 110 L 237 110 L 207 60 L 207 110 Z" fill="#0d4a6d"/>
  
  <!-- D - темно-синий -->
  <path d="M 267 110 L 267 40 L 297 40 Q 312 40 320 48 Q 328 56 328 75 Q 328 94 320 102 Q 312 110 297 110 Z M 287 95 L 297 95 Q 306 95 311 89 Q 316 83 316 75 Q 316 67 311 61 Q 306 55 297 55 L 287 55 Z" fill="#0d4a6d"/>
  
  <!-- R - темно-синий -->
  <path d="M 338 110 L 338 40 L 368 40 Q 380 40 386 46 Q 392 52 392 62 Q 392 70 388 76 L 398 110 L 378 110 L 370 80 L 358 80 L 358 110 Z M 358 55 L 358 68 L 368 68 Q 372 68 374 66 Q 376 64 376 61 Q 376 58 374 56 Q 372 55 368 55 Z" fill="#0d4a6d"/>
  
  <!-- I - темно-синий -->
  <path d="M 408 110 L 408 40 L 428 40 L 428 110 Z" fill="#0d4a6d"/>
  
  <!-- L - темно-синий -->
  <path d="M 438 110 L 438 40 L 458 40 L 458 95 L 490 95 L 490 110 Z" fill="#0d4a6d"/>
</svg>
